<svg id="Layer_1" data-name="Layer 1" xmlns="http://www.w3.org/2000/svg" viewBox="0 0 145.66 113.07"><defs><style>.cls-1{fill:#fff;}.cls-2{fill:#70706b;}</style></defs><title>logoWB</title><path class="cls-1" d="M104.87,37.24l-2.31-.33c-9.54-2.14-18.84-5-27.53-9.6-2.07-1.1-4.17-.61-6.17.48-9.43,5.12-19.63,7.81-30.15,9.52l-1.79-2.78L37,34.19l-0.27-.25c-2-7.2-4.15-14.39-6.11-21.62a6.46,6.46,0,0,0-3-3.77,2.06,2.06,0,0,1-.49-3.08,3.14,3.14,0,0,1,2-1.21c1.29-.08,2.06.8,2.42,2.08,2.62,9.21,9.64,14.39,17.54,18.47,4.56,2.36,9.16,1.35,13-2.13,4.59-4.2,6.79-9.77,8.58-15.56,0.46-1.5-.32-2.52-1-3.69a2.13,2.13,0,0,1,.51-3l0,0,0.16-.1A3.15,3.15,0,0,1,72.75.12a2.26,2.26,0,0,1,1.52,2.79c-1.7,8.94,3.32,15.21,8.89,20.92,3.94,4,8.92,4.1,14.32,1.2,5.88-3.16,9.89-8.3,13.93-13.42,1.13-1.43.35-2.83,0.45-4.25,0.12-1.82,1.28-2.77,3.07-2.22,1.44,0.44,2.38,1.91,1.46,3.14-5.83,7.79-5.39,17.61-8.71,26.19-0.36.92-.8,1.81-1.19,2.72Z" transform="translate(0 0.02)"/><path class="cls-1" d="M142.8,48.44c3.15-.79,1.86,1.61,1.65,2.63a20.46,20.46,0,0,1-7.49,12c-7.72,6.14-16.94,8-26.39,9.27-1,.13-2.54.15-2.33-1,0.59-3.33-.89-7.57,3.6-9.43C123.17,59.75,134.06,56.57,142.8,48.44Z" transform="translate(0 0.02)"/><path class="cls-1" d="M34.67,62.23c2.09,2.31,1.45,5.37,2.16,8.06,0.38,1.44-.43,2.22-2,2C23.83,70.74,13,68.65,5.24,59.62A17.44,17.44,0,0,1,.84,47.74l6.85,4.39C15.77,57.91,25.15,60.21,34.67,62.23Z" transform="translate(0 0.02)"/><path class="cls-1" d="M127.32,86.31c-4.55,7.28-20.41,13.44-27.73,10.81-0.86-.31-1.39-0.6-1.29-1.69,0.3-3.16,4.43-7,7.62-6.85a48,48,0,0,0,18.18-2.25C125.15,86,126.24,85.45,127.32,86.31Z" transform="translate(0 0.02)"/><path class="cls-1" d="M16.86,84.91A51.52,51.52,0,0,0,39.5,88.56c2.64-.13,6.93,4.3,7,7,0,1.5-1,1.53-2,1.58C33.28,97.69,23.77,94.16,16.86,84.91Z" transform="translate(0 0.02)"/><path d="M102.79,39.09c2.51,0.66,5.2,1.12,4.89,4.71a59.45,59.45,0,0,0-.47,12.11l-0.46,5.91c-2.85.28-2.32-2.31-2.9-3.69C95.93,39.25,73.24,31.37,56.79,41.87c-7.62,4-12.44,10.28-15.17,18.3-0.48,1.42-.85,3.38-2.56,3.19-1.93-.21-1.37-2.3-1.43-3.69-0.2-5-.35-10-0.48-14.94,0-1.81-.31-3.72,1.49-5a75.17,75.17,0,0,0,28.67-8c3.89-1.92,7-1.74,10.74.12C85.83,35.73,94,38.63,102.79,39.09Z" transform="translate(0 0.02)"/><path d="M110.26,52.24c11.77-5,23.29-10.48,32.22-20.09,2.07-2.23,2.68-.74,3,1.23a14.61,14.61,0,0,1-3.83,12.33A42.13,42.13,0,0,1,128.84,54c-5.69,2.11-11.46,4-17.19,6-3.58-.56-1.16-3.41-1.93-5Z" transform="translate(0 0.02)"/><path d="M7.91,49.36c-5.67-4.84-10.08-10.16-6.78-19C5.84,35,10.42,39.21,15.74,42.5a86,86,0,0,0,15,7.62c2.86,1.07,4.4,2.67,4.39,5.71l-0.27,4-0.14.07A94.08,94.08,0,0,1,7.91,49.36Z" transform="translate(0 0.02)"/><path d="M139,66.35c-3.39,9.56-9.1,14.65-17,17.4a29,29,0,0,1-10.74,1.92c-2.39-.1-6.24,2.07-7-1.72-0.78-4.18,3.22-8.08,7.25-8.44C120.89,74.66,129.9,72.65,139,66.35Z" transform="translate(0 0.02)"/><path d="M7.67,67.21c8.48,5.66,18.11,7.75,28.16,8.41,1.87,0.12,5.67,7.59,5,9.33-0.32.77-1,.73-1.6,0.87-12,2.81-28.22-6.28-32-17.9A2.49,2.49,0,0,1,7.67,67.21Z" transform="translate(0 0.02)"/><path d="M54.94,99.56c11.78,5.26,23.47,5.87,35.18-.13a40.41,40.41,0,0,1-13.57,12.48,8.48,8.48,0,0,1-9.39-.59A48,48,0,0,1,54.94,99.56Z" transform="translate(0 0.02)"/><path d="M50.21,81.24C47,79.32,43.4,78,43,73.3c-0.67-7.55-.08-8.9,7.41-12.75l1.81,0.32v1.85a0.87,0.87,0,0,0-.18.41,5.2,5.2,0,0,0,.54.71l2.22,5.78v3.3c-0.41,2.83-3.31,4.73-2.91,7.86Z" transform="translate(0 0.02)"/><path d="M60.14,43c1.58-.43,3.17-0.81,4.73-1.3,4.36-1.38,8.61-2.33,12.49,1.36,0.72,0.68,2.14.62,3.24,0.91l0.09,1.42C76,44.14,74.56,48,72.48,50.76L70.39,51l-1.65-.5A3.06,3.06,0,0,0,65.43,50l-5.61.4-0.51-4Z" transform="translate(0 0.02)"/><path d="M71.75,92.56c1,3.18,5.27,3.9,5.51,7.59-6.68,1.45-12.92.6-18.53-3.52q0-2.44-.09-4.87a24.3,24.3,0,0,0,9.18.81h3.93Z" transform="translate(0 0.02)"/><path d="M93,48.12c5.73,3.28,7.69,9.09,9.92,14.72L102.67,64c-2.86-.46-4.61-4.3-8.15-2.68v-2.4c0.44-3.52-1.48-6.26-3-9.13Z" transform="translate(0 0.02)"/><path d="M90.67,94.69c0.08-3.57,3.85-5.94,3.19-9.75l0.66-1.42c4,0.35,4.84-3.67,7.4-5.31a1.47,1.47,0,0,0,.63.63C100.29,85.38,97.39,91.47,90.67,94.69Z" transform="translate(0 0.02)"/><path d="M84.67,79.64l-8,2.54-2.23-.39a42.9,42.9,0,0,0-6.78-9l0.87-2.13c2-3.72,6.74-5.78,6.45-10.85l1.54,0.06c2.11,3.36,5.92,3.31,9.09,4.53a1.88,1.88,0,0,0,2.14.36q0,7.35.07,14.7l-2.19-.26Z" transform="translate(0 0.02)"/><path d="M56.67,88.82l1,2c-1.47.09-1.89-1.14-2.58-2h1.58Z" transform="translate(0 0.02)"/><path d="M57.67,90.76l1.08,1.08A1,1,0,0,1,57.67,90.76Z" transform="translate(0 0.02)"/><path class="cls-2" d="M59.31,46.46l0.51,4L52.2,60.91l-1.81-.32C52.05,55,57.27,51.75,59.31,46.46Z" transform="translate(0 0.02)"/><path class="cls-2" d="M55.12,88.79l-1.7-1-3.21-6.56,1.64-.46,4.89,7.16a4.86,4.86,0,0,1-.08.87H55.12Z" transform="translate(0 0.02)"/><path class="cls-2" d="M85.18,47.83c-1.14-1.48-3-1.59-4.49-2.49L80.6,43.91c5.3-2,8.68,1.65,12.44,4.2l-1.61,1.63C89.24,49.44,87.53,47.62,85.18,47.83Z" transform="translate(0 0.02)"/><path class="cls-2" d="M87.87,79.45q0-7.35-.07-14.7c0.76-.53,2-2.2,1.89.27-0.08,1.32-.88,2.73-1.15,4.22-1.14,6.14,1.73,10.48,6,14.28l-0.66,1.39C91.46,83.56,89.76,81.4,87.87,79.45Z" transform="translate(0 0.02)"/><path class="cls-2" d="M94.45,58.91v2.4c-0.55.82-1.69,1.86-2.17,1C91.16,60.35,93.31,59.8,94.45,58.91Z" transform="translate(0 0.02)"/><path class="cls-2" d="M74.47,81.78l2.23,0.39-5,10.39H67.81a11.2,11.2,0,0,0,4.93-8.92Z" transform="translate(0 0.02)"/><path class="cls-2" d="M84.67,79.64l1-.45Z" transform="translate(0 0.02)"/><path class="cls-2" d="M67.67,72.77c-4.3.67-8.64-1-12.93,0.15v-3.3a60.25,60.25,0,0,0,13.77,1Z" transform="translate(0 0.02)"/><path class="cls-2" d="M52.22,62.72l0.36,1.12A5.19,5.19,0,0,1,52,63.13,0.87,0.87,0,0,1,52.22,62.72Z" transform="translate(0 0.02)"/><path class="cls-2" d="M75,59.8L70.4,51l2.09-.31c1.4,3,3.51,5.75,4.08,9.15Z" transform="translate(0 0.02)"/><path class="cls-2" d="M68.74,50.53A3.56,3.56,0,0,1,65.43,50,3.06,3.06,0,0,1,68.74,50.53Z" transform="translate(0 0.02)"/><polygon class="cls-2" points="88.74 63.99 91.97 60.93 93.04 62.74 89.69 65.04 88.74 63.99"/><path class="cls-2" d="M55.09,88.82a20.36,20.36,0,0,0,3.64,7.81V92.56l-2.08-3.74H55.09Z" transform="translate(0 0.02)"/></svg>