<?xml version="1.0" encoding="utf-8"?>
<!-- Generator: Adobe Illustrator 19.2.1, SVG Export Plug-In . SVG Version: 6.00 Build 0)  -->
<svg version="1.1" id="Layer_1" xmlns="http://www.w3.org/2000/svg" xmlns:xlink="http://www.w3.org/1999/xlink" x="0px" y="0px"
	 viewBox="0 0 145.7 113.1" style="enable-background:new 0 0 145.7 113.1;" xml:space="preserve">
<style type="text/css">
	.st0{fill:#FFFFFF;}
	.st1{fill:#70706B;}
</style>
<title>logo</title>
<g>
	<path d="M104.9,37.2l-2.3-0.3c-9.5-2.1-18.8-5-27.5-9.6c-2.1-1.1-4.2-0.6-6.2,0.5c-9.4,5.1-19.6,7.8-30.1,9.5l-1.8-2.8l0.1-0.3
		l-0.3-0.3c-2-7.2-4.2-14.4-6.1-21.6c-0.5-1.6-1.6-2.9-3-3.8c-1-0.6-1.3-1.9-0.7-2.8c0.1-0.1,0.1-0.2,0.2-0.2c0.5-0.6,1.2-1.1,2-1.2
		c1.3-0.1,2.1,0.8,2.4,2.1c2.6,9.2,9.6,14.4,17.5,18.5c4.6,2.4,9.2,1.4,13-2.1c4.6-4.2,6.8-9.8,8.6-15.6c0.5-1.5-0.3-2.5-1-3.7
		c-0.7-1-0.4-2.3,0.5-3c0,0,0,0,0,0l0.2-0.1C71.1,0,72-0.1,72.8,0.1c1.2,0.4,1.9,1.6,1.5,2.8c-1.7,8.9,3.3,15.2,8.9,20.9
		c3.9,4,8.9,4.1,14.3,1.2c5.9-3.2,9.9-8.3,13.9-13.4c1.1-1.4,0.3-2.8,0.4-4.3c0.1-1.8,1.3-2.8,3.1-2.2c1.4,0.4,2.4,1.9,1.5,3.1
		c-5.8,7.8-5.4,17.6-8.7,26.2c-0.4,0.9-0.8,1.8-1.2,2.7L104.9,37.2z"/>
	<path d="M142.8,48.4c3.1-0.8,1.9,1.6,1.6,2.6c-1,4.8-3.6,9-7.5,12c-7.7,6.1-16.9,8-26.4,9.3c-1,0.1-2.5,0.2-2.3-1
		c0.6-3.3-0.9-7.6,3.6-9.4C123.2,59.8,134.1,56.6,142.8,48.4z"/>
	<path d="M34.7,62.2c2.1,2.3,1.5,5.4,2.2,8.1c0.4,1.4-0.4,2.2-2,2c-11-1.6-21.8-3.6-29.6-12.7c-2.9-3.3-4.5-7.5-4.4-11.9l6.8,4.4
		C15.8,57.9,25.1,60.2,34.7,62.2z"/>
	<path d="M127.3,86.3c-4.6,7.3-20.4,13.4-27.7,10.8c-0.9-0.3-1.4-0.6-1.3-1.7c0.3-3.2,4.4-7,7.6-6.8c6.1,0.4,12.3-0.3,18.2-2.3
		C125.2,86,126.2,85.4,127.3,86.3z"/>
	<path d="M16.9,84.9c7.2,2.9,14.9,4.1,22.6,3.7c2.6-0.1,6.9,4.3,7,7c0,1.5-1,1.5-2,1.6C33.3,97.7,23.8,94.2,16.9,84.9z"/>
</g>
<g>
	<path class="st0" d="M102.8,39.1c2.5,0.7,5.2,1.1,4.9,4.7c-0.6,4-0.7,8.1-0.5,12.1l-0.5,5.9c-2.8,0.3-2.3-2.3-2.9-3.7
		c-7.9-18.9-30.6-26.8-47.1-16.3c-7.6,4-12.4,10.3-15.2,18.3c-0.5,1.4-0.8,3.4-2.6,3.2c-1.9-0.2-1.4-2.3-1.4-3.7
		c-0.2-5-0.3-10-0.5-14.9c0-1.8-0.3-3.7,1.5-5c10-0.7,19.7-3.4,28.7-8c3.9-1.9,7-1.7,10.7,0.1C85.8,35.7,94,38.6,102.8,39.1z"/>
	<path class="st0" d="M110.3,52.2c11.8-5,23.3-10.5,32.2-20.1c2.1-2.2,2.7-0.7,3,1.2c0.7,4.5-0.7,9-3.8,12.3
		c-3.7,3.5-8.1,6.3-12.8,8.3c-5.7,2.1-11.5,4-17.2,6c-3.6-0.6-1.2-3.4-1.9-5L110.3,52.2z"/>
	<path class="st0" d="M7.9,49.4c-5.7-4.8-10.1-10.2-6.8-19c4.7,4.6,9.3,8.8,14.6,12.1c4.7,3,9.8,5.6,15,7.6c2.9,1.1,4.4,2.7,4.4,5.7
		l-0.3,4l-0.1,0.1C25.3,57.8,16.3,54.2,7.9,49.4z"/>
	<path class="st0" d="M139,66.3c-3.4,9.6-9.1,14.7-17,17.4c-3.4,1.3-7.1,2-10.7,1.9c-2.4-0.1-6.2,2.1-7-1.7
		c-0.8-4.2,3.2-8.1,7.3-8.4C120.9,74.7,129.9,72.7,139,66.3z"/>
	<path class="st0" d="M7.7,67.2c8.5,5.7,18.1,7.8,28.2,8.4c1.9,0.1,5.7,7.6,5,9.3c-0.3,0.8-1,0.7-1.6,0.9c-12,2.8-28.2-6.3-32-17.9
		C7.3,67.7,7.5,67.4,7.7,67.2z"/>
	<path class="st0" d="M54.9,99.6c11.8,5.3,23.5,5.9,35.2-0.1c-3.5,5.2-8.1,9.4-13.6,12.5c-3,1.7-6.7,1.5-9.4-0.6
		C62.4,108.2,58.3,104.2,54.9,99.6z"/>
	<path class="st0" d="M50.2,81.2C47,79.3,43.4,78,43,73.3c-0.7-7.6-0.1-8.9,7.4-12.8l1.8,0.3v1.8c-0.1,0.1-0.2,0.3-0.2,0.4
		c0.2,0.3,0.3,0.5,0.5,0.7l2.2,5.8v3.3c-0.4,2.8-3.3,4.7-2.9,7.9L50.2,81.2z"/>
	<path class="st0" d="M60.1,43c1.6-0.4,3.2-0.8,4.7-1.3c4.4-1.4,8.6-2.3,12.5,1.4c0.7,0.7,2.1,0.6,3.2,0.9l0.1,1.4
		c-4.7-1.3-6.1,2.6-8.2,5.4L70.4,51l-1.7-0.5c-0.9-0.8-2.2-1-3.3-0.5l-5.6,0.4l-0.5-4L60.1,43z"/>
	<path class="st0" d="M71.8,92.6c1,3.2,5.3,3.9,5.5,7.6c-6.7,1.4-12.9,0.6-18.5-3.5c0-1.6,0-3.3-0.1-4.9c3,0.9,6.1,1.1,9.2,0.8
		L71.8,92.6L71.8,92.6z"/>
	<path class="st0" d="M93,48.1c5.7,3.3,7.7,9.1,9.9,14.7l-0.2,1.2c-2.9-0.5-4.6-4.3-8.2-2.7v-2.4c0.4-3.5-1.5-6.3-3-9.1L93,48.1z"/>
	<path class="st0" d="M90.7,94.7c0.1-3.6,3.8-5.9,3.2-9.8l0.7-1.4c4,0.3,4.8-3.7,7.4-5.3c0.1,0.3,0.4,0.5,0.6,0.6
		C100.3,85.4,97.4,91.5,90.7,94.7z"/>
	<path class="st0" d="M84.7,79.6l-8,2.5l-2.2-0.4c-1.9-3.3-4.1-6.3-6.8-9l0.9-2.1c2-3.7,6.7-5.8,6.4-10.8l1.5,0.1
		c2.1,3.4,5.9,3.3,9.1,4.5c0.6,0.6,1.4,0.7,2.1,0.4c0,4.9,0,9.8,0.1,14.7l-2.2-0.3L84.7,79.6z"/>
	<path class="st0" d="M56.7,88.8l1,2c-1.5,0.1-1.9-1.1-2.6-2H56.7z"/>
	<path class="st0" d="M57.7,90.8l1.1,1.1c-0.6,0-1-0.4-1.1-0.9C57.7,90.9,57.7,90.8,57.7,90.8z"/>
</g>
<g>
	<path class="st1" d="M59.3,46.5l0.5,4l-7.6,10.5l-1.8-0.3C52.1,55,57.3,51.8,59.3,46.5z"/>
	<path class="st1" d="M55.1,88.8l-1.7-1l-3.2-6.6l1.6-0.5l4.9,7.2c0,0.3,0,0.6-0.1,0.9L55.1,88.8L55.1,88.8z"/>
	<path class="st1" d="M85.2,47.8c-1.1-1.5-3-1.6-4.5-2.5l-0.1-1.4c5.3-2,8.7,1.7,12.4,4.2l-1.6,1.6C89.2,49.4,87.5,47.6,85.2,47.8z"
		/>
	<path class="st1" d="M87.9,79.4c0-4.9,0-9.8-0.1-14.7c0.8-0.5,2-2.2,1.9,0.3c-0.1,1.3-0.9,2.7-1.2,4.2c-1.1,6.1,1.7,10.5,6,14.3
		l-0.7,1.4C91.5,83.6,89.8,81.4,87.9,79.4z"/>
	<path class="st1" d="M94.4,58.9v2.4c-0.6,0.8-1.7,1.9-2.2,1C91.2,60.3,93.3,59.8,94.4,58.9z"/>
	<path class="st1" d="M74.5,81.8l2.2,0.4l-5,10.4h-3.9c3-2,4.8-5.3,4.9-8.9L74.5,81.8z"/>
	<path class="st1" d="M84.7,79.6l1-0.4L84.7,79.6z"/>
	<path class="st1" d="M67.7,72.8c-4.3,0.7-8.6-1-12.9,0.2v-3.3c4.5,0.9,9.2,1.2,13.8,1L67.7,72.8z"/>
	<path class="st1" d="M52.2,62.7l0.4,1.1c-0.2-0.2-0.4-0.5-0.6-0.7C52,63,52.1,62.8,52.2,62.7z"/>
	<path class="st1" d="M75,59.8L70.4,51l2.1-0.3c1.4,3,3.5,5.8,4.1,9.1L75,59.8z"/>
	<path class="st1" d="M68.7,50.5c-1.1,0.4-2.4,0.2-3.3-0.5C66.5,49.5,67.8,49.7,68.7,50.5z"/>
	<polygon class="st1" points="88.7,64 92,60.9 93,62.7 89.7,65 	"/>
	<path class="st1" d="M55.1,88.8c0.6,2.8,1.9,5.5,3.6,7.8v-4.1l-2.1-3.7H55.1z"/>
</g>
</svg>
